<?xml version="1.0" encoding="UTF-8"?>
<svg version="1.1" viewBox="0 0 800 800" width="800" height="400" xmlns="http://www.w3.org/2000/svg">
<path transform="translate(595,161)" d="m0 0h410v2c-1.76 1.23-1.76 1.23-4.12 2.62-4.84 3.13-7.85 6.5-10.9 11.4-0.391 0.616-0.781 1.23-1.18 1.87-6.25 11-5.1 24.7-5.06 37-8.73e-4 1.9-0.00263 3.81-0.00518 5.71-0.00445 5.21 0.0035 10.4 0.0136 15.6 0.00866 5.62 0.00571 11.2 0.0042 16.9-0.00105 9.74 0.00521 19.5 0.0165 29.2 0.0163 14.1 0.0215 28.2 0.024 42.2 0.00437 22.8 0.0177 45.7 0.0366 68.5 0.0184 22.2 0.0325 44.4 0.041 66.5 3.95e-4 1.03 3.95e-4 1.03 7.97e-4 2.07 0.00264 6.87 0.00519 13.7 0.00768 20.6 0.0209 57.6 0.0561 115 0.101 173-0.548-0.412-1.1-0.824-1.66-1.25-0.719-0.54-1.44-1.08-2.18-1.64-0.713-0.536-1.43-1.07-2.16-1.62-2.24-1.67-4.51-3.28-6.81-4.87-0.838-0.587-1.68-1.17-2.54-1.78-1.82-1.27-3.65-2.53-5.48-3.79-9.82-6.88-16.2-13.2-19.2-25.1-0.529-5.1-0.508-10.2-0.454-15.3 0.00113-1.51 4.9e-4 -3.02-0.00177-4.53-0.00114-4.06 0.0222-8.13 0.0503-12.2 0.0251-4.26 0.0274-8.52 0.0321-12.8 0.0124-8.05 0.0452-16.1 0.0854-24.1 0.0448-9.17 0.0667-18.3 0.0868-27.5 0.0417-18.9 0.112-37.7 0.201-56.6-2.96 1.75-5.75 3.48-8.39 5.68-0.619 0.51-1.24 1.02-1.87 1.55-0.655 0.544-1.31 1.09-1.98 1.65-5.79 4.76-11.7 9.4-17.6 13.9-5.38 4.08-10.7 8.21-16 12.4-2.08 1.67-4.18 3.3-6.29 4.93-4.96 3.84-9.8 7.81-14.7 11.8-4.35 3.54-8.73 7.03-13.2 10.5-6.1 4.75-12.1 9.65-18 14.6-4.43 3.67-8.89 7.29-13.4 10.9-2.81 2.25-5.59 4.52-8.37 6.79-2.75 2.24-5.51 4.47-8.27 6.69-1.93 1.57-3.84 3.16-5.75 4.76-1.15 0.937-2.3 1.87-3.45 2.81-1 0.834-2.01 1.67-3.04 2.53-2.77 1.54-2.77 1.54-5.14 1.19-3.8-2.39-7.16-5.19-10.6-8.09-1.53-1.28-3.06-2.56-4.59-3.84-0.758-0.634-1.52-1.27-2.3-1.92-3.01-2.49-6.09-4.9-9.18-7.3-5.99-4.66-11.8-9.47-17.7-14.3-4.94-4.08-9.95-8.07-15-12-4.69-3.67-9.29-7.45-13.9-11.2-7.02-5.82-14.2-11.4-21.4-16.9-7.79-5.92-15.5-12-23-18.2-5.32-4.34-10.7-8.56-16.2-12.7-2.62-2.01-5.2-4.06-7.77-6.12-0.00239 0.762-0.00478 1.52-0.00724 2.31-0.0593 18.6-0.135 37.2-0.228 55.7-0.0449 8.99-0.0843 18-0.111 27-0.023 7.84-0.0565 15.7-0.102 23.5-0.0238 4.15-0.0426 8.29-0.0489 12.4-0.00609 3.91-0.0262 7.82-0.0567 11.7-0.00872 1.43-0.0125 2.85-0.0107 4.28 0.0103 12.1-0.509 24.1-9.43 33-5.66 5.13-11.8 9.2-18.3 13.2-3.65 2.45-6.81 5.3-10 8.3-1.68 1.5-1.68 1.5-2.68 1.5-5.97e-4 -0.979-0.00119-1.96-0.00181-2.97-0.0357-58-0.0925-116-0.176-174-0.01-6.97-0.0199-13.9-0.0296-20.9-9.72e-4 -0.694-0.00194-1.39-0.00294-2.1-0.0314-22.5-0.0499-44.9-0.0616-67.4-0.0125-23.8-0.0398-47.5-0.0825-71.3-0.0251-14.2-0.0385-28.4-0.0368-42.7 2.98e-5 -9.75-0.0146-19.5-0.0407-29.3-0.0146-5.63-0.0228-11.3-0.0136-16.9 0.00829-5.16-0.00189-10.3-0.0265-15.5-0.00568-1.86-0.00468-3.72 0.00382-5.58 0.0601-14.4-1.31-27.2-11.5-38.4-2.35-1.81-4.71-3.37-7.28-4.84-0.853-0.572-0.853-0.572-1.72-1.16v-2zm63 40c3.43 10.3 11.5 17.9 21 23 9.34 4.15 19.1 7.09 28.9 9.94 30.6 8.93 63.8 23.7 87.6 45.4 2.28 1.88 2.28 1.88 4.88 1.68 3.27-1.32 5.51-3.15 8.23-5.4 25.7-20.5 57.1-33.9 88.4-43.2 22.3-6.69 22.3-6.69 39.9-21.4 1.65-3.3 3.3-6.6 5-10h-284zm-2 60c-4.89 55.6-4.89 55.6 16.2 105 7.48 6.85 16.1 11.3 25.8 14.2 0.598 0.193 1.2 0.387 1.81 0.586 14.6 2.76 28.9-0.456 41.2-8.59 7.05-5.38 12.4-11.4 17-19 0.4-0.645 0.799-1.29 1.21-1.95 6.11-10.9 7.44-23.7 4.16-35.7-5.5-16.1-20.5-24.1-35-31.3-17.3-8.27-36-11.9-54.8-14.9-5.15-0.887-9.05-2.45-13.5-5.1h-2c-0.33-0.99-0.66-1.98-1-3h-1zm283 3.31c-6.62 3.67-13.6 4.82-21 6.2-27.6 5.19-57.4 12.9-77.3 34.5-1.73 2.56-2.93 5.11-4 8-0.413 1.03-0.825 2.06-1.25 3.12-2.82 14.6 0.314 28.5 8.14 41 9.09 12.4 20.8 21 36.1 23.9 14.7 1.65 28.7-1.45 41-10 14.4-12.1 20.9-27.6 23-46 1.16-14.3 0.989-28.5 0.562-42.8-0.0534-1.98-0.106-3.96-0.158-5.94-0.127-4.77-0.263-9.54-0.404-14.3-1.79 0-3.27 1.39-4.75 2.31zm-140 118c-0.649 2.06-1.29 4.12-1.94 6.19-0.539 1.72-0.539 1.72-1.09 3.48-3.8 13-2.86 25.8 2.03 38.3h3c7.03-16.5 5.6-31.2 0-48h-2zm131 31.2c-26 13.5-56.9 13.9-84.5 5.62-5.47-1.63-9.81-2.55-15.5-1.81-3.93 3-4.88 6.08-6.19 10.8-4.47 14.5-12.6 26.1-22.8 37.2-10.1-4.49-17.8-18.4-22-28.3-1.11-2.98-2.13-5.97-3.06-9.02-1.33-4.3-2.73-7.5-5.98-10.7-6.56-2.2-14.2 1.11-20.5 3.07-25.7 7.88-56.7 5.41-80.6-7.01-0.724-0.422-1.45-0.843-2.2-1.28-0.554-0.259-1.11-0.518-1.68-0.785-0.99 0.495-0.99 0.495-2 1 2.83 2.86 5.66 5.71 8.5 8.56 0.791 0.8 1.58 1.6 2.4 2.42 4.87 4.89 9.86 9.53 15.1 14 1.19 1.05 2.38 2.09 3.57 3.14 6.54 5.73 13.1 11.3 20 16.6 4.68 3.63 9.23 7.38 13.8 11.2 6.09 5.06 12.3 9.89 18.7 14.6 5.42 4.03 10.7 8.25 15.9 12.5 5.49 4.49 11.1 8.81 16.7 13.1 7.21 5.48 14.3 11.1 21.3 16.8 3.89-1.69 7.03-4.25 10.3-6.88 0.611-0.485 1.22-0.969 1.85-1.47 1.95-1.55 3.89-3.1 5.84-4.66l1.89-1.51c2.5-2 5.01-4 7.51-6.01 9.46-7.58 19-15 28.6-22.5 2.29-1.78 4.58-3.56 6.87-5.34 1.34-1.04 2.68-2.08 4.02-3.12 18.2-14.2 36-28.9 53.1-44.5 1.1-0.992 2.2-1.98 3.29-2.98 5.6-5.08 11-10.1 15.7-16-3.12 0-5.28 1.71-8 3.19z" fill="#000002"/>
<path transform="translate(901 304)" d="m0 0c7.14 4.11 12.2 10.1 14.6 18 1.87 8.62 0.402 15.5-3.75 23.2-5.55 6.78-11.3 11-20.1 12.1-9.31 0.453-16.1-2.35-23.1-8.48-4.9-5.33-7.26-12.3-7.56-19.5 0.454-8.22 3.55-15.6 9.44-21.4 9.12-6.28 19.9-8.79 30.4-4z" fill="#000002"/>
<path transform="translate(724 305)" d="m0 0c3.79 2.23 6.56 4.87 9.25 8.32 0.434 0.55 0.869 1.1 1.32 1.67 4.17 6.59 3.52 14.9 2.68 22.3-2.3 8.17-7.63 13.9-14.9 18.1-7.26 3.21-15.1 2.92-22.5 0.156-8.35-3.8-12.7-9.2-15.9-17.7-1.8-9.32-0.386-17.1 4.38-25.4 8.21-11.1 23.8-12.9 35.7-7.47z" fill="#000002"/>
</svg>
